<svg width="64" height="64" viewBox="0 0 64 64" fill="none" xmlns="http://www.w3.org/2000/svg">
<path d="M2 14C2 12.3431 3.20883 11 4.7 11H53.3C54.7912 11 56 12.3431 56 14V53C56 54.6569 54.7912 56 53.3 56H4.7C3.20883 56 2 54.6569 2 53V14Z" fill="#F38F1B"/>
<path d="M2 11C2 9.34315 3.34315 8 5 8H14.5917C16.0963 8 17.5013 8.75196 18.3359 10.0038L21.6641 14.9962C22.4987 16.248 23.9037 17 25.4083 17H59C60.6569 17 62 18.3431 62 20V53C62 54.6569 60.6569 56 59 56H5C3.34315 56 2 54.6569 2 53V11Z" fill="#FFAA00"/>
</svg>
