<svg width="64" height="64" viewBox="0 0 64 64" fill="none" xmlns="http://www.w3.org/2000/svg">
<rect x="35" y="3" width="26" height="26" rx="5" fill="#A0A0A0"/>
<path d="M12 10C12 7.19974 12 5.79961 12.545 4.73005C13.0243 3.78924 13.7892 3.02433 14.73 2.54497C15.7996 2 17.1997 2 20 2H41.6863C42.9092 2 43.5207 2 44.0962 2.13815C44.6063 2.26063 45.0941 2.46266 45.5414 2.7368C46.046 3.04601 46.4784 3.47839 47.3431 4.34315L59.6569 16.6569C60.5216 17.5216 60.954 17.954 61.2632 18.4586C61.5373 18.9059 61.7394 19.3937 61.8619 19.9038C62 20.4793 62 21.0908 62 22.3137V54C62 56.8003 62 58.2004 61.455 59.27C60.9757 60.2108 60.2108 60.9757 59.27 61.455C58.2004 62 56.8003 62 54 62H20C17.1997 62 15.7996 62 14.73 61.455C13.7892 60.9757 13.0243 60.2108 12.545 59.27C12 58.2004 12 56.8003 12 54V10Z" fill="#5F5F5F"/>
<path opacity="0.2" d="M38.4634 35.8399V39H35.2724V35.8399H38.4634ZM32 29.0684C32.0136 28.3297 32.1355 27.6525 32.3659 27.0369C32.6098 26.4213 32.9417 25.8878 33.3618 25.4364C33.7954 24.985 34.3103 24.6361 34.9065 24.3899C35.5163 24.13 36.1938 24 36.939 24C37.9011 24 38.7005 24.1368 39.3374 24.4104C39.9878 24.6703 40.5095 24.9986 40.9024 25.3953C41.2954 25.7921 41.5732 26.223 41.7358 26.6881C41.9119 27.1395 42 27.5636 42 27.9603C42 28.617 41.9119 29.1573 41.7358 29.5814C41.5732 30.0055 41.3631 30.368 41.1057 30.6689C40.8618 30.9699 40.584 31.2298 40.2724 31.4487C39.9743 31.6539 39.6897 31.8659 39.4187 32.0848C39.1477 32.29 38.9038 32.5294 38.687 32.803C38.4837 33.0766 38.355 33.4186 38.3008 33.829V34.6088H35.5569V33.6854C35.5976 33.0971 35.706 32.6047 35.8821 32.2079C36.0718 31.8112 36.2886 31.4761 36.5325 31.2025C36.7764 30.9152 37.0339 30.6689 37.3049 30.4637C37.5759 30.2585 37.8266 30.0534 38.0569 29.8482C38.2873 29.643 38.4702 29.4172 38.6057 29.171C38.7547 28.9248 38.8225 28.617 38.8089 28.2476C38.8089 27.6183 38.6531 27.1532 38.3415 26.8523C38.0434 26.5513 37.6233 26.4008 37.0813 26.4008C36.7154 26.4008 36.397 26.4761 36.126 26.6265C35.8686 26.7633 35.6518 26.9549 35.4756 27.2011C35.313 27.4337 35.1911 27.7141 35.1098 28.0424C35.0285 28.357 34.9878 28.699 34.9878 29.0684H32Z" fill="white"/>
<circle opacity="0.2" cx="37" cy="32" r="13" stroke="white" stroke-width="3"/>
<g clip-path="url(#clip0_88_13)">
<rect x="2" y="37" width="34" height="15" rx="2" fill="#A0A0A0"/>
<g filter="url(#filter0_d_88_13)">
<path d="M5.828 40.432H11.852V42.016H7.712V43.996H11.3V45.46H7.712V49H5.828V40.432ZM13.5413 40.432H15.4253V49H13.5413V40.432ZM17.6803 40.432H19.5643V47.416H23.7403V49H17.6803V40.432ZM25.3936 40.432H31.8016V42.016H27.2776V43.852H31.4296V45.316H27.2776V47.416H31.8976V49H25.3936V40.432Z" fill="white"/>
</g>
</g>
<defs>
<filter id="filter0_d_88_13" x="1.828" y="36.432" width="34.0696" height="16.568" filterUnits="userSpaceOnUse" color-interpolation-filters="sRGB">
<feFlood flood-opacity="0" result="BackgroundImageFix"/>
<feColorMatrix in="SourceAlpha" type="matrix" values="0 0 0 0 0 0 0 0 0 0 0 0 0 0 0 0 0 0 127 0" result="hardAlpha"/>
<feOffset/>
<feGaussianBlur stdDeviation="2"/>
<feComposite in2="hardAlpha" operator="out"/>
<feColorMatrix type="matrix" values="0 0 0 0 0 0 0 0 0 0 0 0 0 0 0 0 0 0 0.1 0"/>
<feBlend mode="normal" in2="BackgroundImageFix" result="effect1_dropShadow_88_13"/>
<feBlend mode="normal" in="SourceGraphic" in2="effect1_dropShadow_88_13" result="shape"/>
</filter>
<clipPath id="clip0_88_13">
<rect x="2" y="37" width="34" height="15" rx="2" fill="white"/>
</clipPath>
</defs>
</svg>
