<svg xmlns="http://www.w3.org/2000/svg" width="16" height="16" viewBox="0 0 16 16" fill="none">
    <rect width="16" height="16" rx="2.5" fill="#F5F5F5"/>
    <path fill-rule="evenodd" clip-rule="evenodd" d="M2.50732 6.25055V7.33856H7.5448V6.24935H4.46887L6.9217 3.79651C7.05591 3.66351 7.23445 3.58922 7.42377 3.58922H7.5448V2.5H2.50732V3.58922H5.58924L3.1412 6.03845C3.0046 6.17506 2.82247 6.25055 2.62835 6.25055H2.50732ZM11.5804 8.66024H11.759C11.7015 8.79205 11.7015 8.94183 11.759 9.07364L13.669 13.4988H12.3833L11.0268 10.3558L9.67041 13.4988H8.38468L10.2947 9.07364C10.3522 8.94183 10.3522 8.79205 10.2947 8.66024H11.5804ZM7.13739 8.65904H6.38728V8.79684C6.38728 8.98617 6.30101 9.1659 6.15362 9.28453L5.02606 10.1904L3.8997 9.28573C3.75231 9.1671 3.66604 8.98736 3.66604 8.79804V8.66024H2.50732V13.5H3.66484V10.5834L4.1022 10.9333L5.02726 11.6763L5.95112 10.9345L6.38848 10.5834V13.5H7.546V8.66024H7.13859L7.13739 8.65904ZM11.4569 3.90915V5.92941V5.93061C11.4569 6.10196 11.5959 6.23976 11.766 6.23976H13.3058V7.34096H8.50797V6.23976H10.0477C10.2191 6.23976 10.3569 6.10076 10.3569 5.93061V3.91035C10.3569 3.739 10.2179 3.6012 10.0477 3.6012H8.50797V2.5H13.3058V3.6H11.766C11.5947 3.6 11.4569 3.739 11.4569 3.90915Z" fill="black"/>
  </svg>