<svg width="64" height="64" viewBox="0 0 64 64" fill="none" xmlns="http://www.w3.org/2000/svg">
<path d="M0 12C0 5.37258 5.37258 0 12 0H52C58.6274 0 64 5.37258 64 12V52C64 58.6274 58.6274 64 52 64H12C5.37258 64 0 58.6274 0 52V12Z" fill="white"/>
<path d="M0 12C0 5.37258 5.37258 0 12 0H52C58.6274 0 64 5.37258 64 12V52C64 58.6274 58.6274 64 52 64H12C5.37258 64 0 58.6274 0 52V12Z" fill="white"/>
<path d="M52 63V64H12V63H52ZM63 52V12C63 5.92487 58.0751 1 52 1H12C5.92487 1 1 5.92487 1 12V52C1 58.0751 5.92487 63 12 63V64L11.6904 63.9961C5.20608 63.8319 0 58.5239 0 52V12C0 5.37258 5.37258 0 12 0H52C58.6274 0 64 5.37258 64 12V52C64 58.6274 58.6274 64 52 64V63C58.0751 63 63 58.0751 63 52Z" fill="#333333" fill-opacity="0.05"/>
<path d="M43.13 13.4879C53.348 18.7139 57.378 31.2719 52.152 41.49C46.926 51.708 34.394 55.738 24.15 50.512C19.7085 48.238 16.2493 44.437 14.3983 39.8226C14.2237 39.3874 14.3966 38.8945 14.7937 38.6451L17.2508 37.1019C17.8148 36.7477 18.5611 37.0341 18.7971 37.6569C19.4075 39.268 20.2762 40.7722 21.3717 42.1095C22.7488 43.7907 24.4552 45.1725 26.386 46.1699C34.212 50.174 43.78 47.08 47.784 39.254C48.7599 37.3944 49.3576 35.3598 49.5427 33.2679C49.7277 31.176 49.4964 29.0681 48.8622 27.066C48.2279 25.064 47.2032 23.2075 45.8473 21.6038C44.4914 20.0001 42.8311 18.6809 40.9624 17.7225C39.0938 16.7641 37.0537 16.1855 34.9601 16.0201C32.8665 15.8547 30.7609 16.1058 28.7649 16.7588C26.769 17.4119 24.9222 18.454 23.3312 19.8249C21.7403 21.1958 20.4368 22.8684 19.496 24.7459L22.8191 26.4605C23.5088 26.8164 23.5479 27.7882 22.8889 28.1983L12.9287 34.3957C12.2878 34.7945 11.4531 34.3666 11.4026 33.6135L10.618 21.9043C10.566 21.1292 11.3792 20.5934 12.0709 20.9471L15.128 22.5099C20.38 12.2399 32.99 8.31395 43.13 13.4879ZM30.884 34.6709C30.643 34.4279 30.4524 34.1398 30.323 33.823C30.1936 33.5063 30.128 33.1671 30.13 32.8249C30.13 32.6429 30.208 32.5129 30.234 32.3309H30.208L31.7497 24.6858C31.9655 23.616 33.4945 23.616 33.7103 24.6858L35.252 32.3309L39.4585 36.7595C40.2205 37.5618 39.3082 38.8244 38.3073 38.3528L31.43 35.1129L31.482 35.0609C31.274 34.9569 31.066 34.8269 30.884 34.6709Z" fill="url(#paint0_linear_3823_882)"/>
<defs>
<linearGradient id="paint0_linear_3823_882" x1="30.7533" y1="10.564" x2="32.9063" y2="54.1112" gradientUnits="userSpaceOnUse">
<stop stop-color="#40DFFF"/>
<stop offset="1" stop-color="#3F6FFE"/>
</linearGradient>
</defs>
</svg>
