<svg width="64" height="64" viewBox="0 0 64 64" fill="none" xmlns="http://www.w3.org/2000/svg">
<path d="M0 12C0 5.37258 5.37258 0 12 0H52C58.6274 0 64 5.37258 64 12V52C64 58.6274 58.6274 64 52 64H12C5.37258 64 0 58.6274 0 52V12Z" fill="white"/>
<path d="M0.5 12C0.5 5.64873 5.64873 0.5 12 0.5H52C58.3513 0.5 63.5 5.64873 63.5 12V52C63.5 58.3513 58.3513 63.5 52 63.5H12C5.64873 63.5 0.5 58.3513 0.5 52V12Z" stroke="#333333" stroke-opacity="0.05"/>
<path d="M41.169 12C42.9254 12 44.5529 12.9215 45.4565 14.4275L54.4565 29.4275C55.4066 31.0109 55.4066 32.9891 54.4565 34.5725L45.4565 49.5725C44.5529 51.0785 42.9254 52 41.1691 52H22.831C21.0746 52 19.4471 51.0785 18.5435 49.5725L9.54349 34.5725C8.59344 32.9891 8.59344 31.0109 9.54349 29.4275L18.5435 14.4275C19.4471 12.9215 21.0746 12 22.831 12H41.169ZM25.5597 23.4567C25.0656 23.7313 24.8971 24.3606 25.1879 24.8454L35.0674 41.3113C35.3449 41.7737 35.9392 41.9328 36.4106 41.6709L38.4403 40.5433C38.9344 40.2687 39.1029 39.6394 38.8121 39.1546L28.9326 22.6887C28.6551 22.2263 28.0608 22.0672 27.5894 22.3291L25.5597 23.4567Z" fill="url(#paint0_linear_889_16)"/>
<path d="M41.169 12C42.9254 12 44.5529 12.9215 45.4565 14.4275L54.4565 29.4275C55.4066 31.0109 55.4066 32.9891 54.4565 34.5725L45.4565 49.5725C44.5529 51.0785 42.9254 52 41.1691 52H22.831C21.0746 52 19.4471 51.0785 18.5435 49.5725L9.54349 34.5725C8.59344 32.9891 8.59344 31.0109 9.54349 29.4275L18.5435 14.4275C19.4471 12.9215 21.0746 12 22.831 12H41.169ZM25.5597 23.4567C25.0656 23.7313 24.8971 24.3606 25.1879 24.8454L35.0674 41.3113C35.3449 41.7737 35.9392 41.9328 36.4106 41.6709L38.4403 40.5433C38.9344 40.2687 39.1029 39.6394 38.8121 39.1546L28.9326 22.6887C28.6551 22.2263 28.0608 22.0672 27.5894 22.3291L25.5597 23.4567Z" fill="url(#paint1_linear_889_16)"/>
<defs>
<linearGradient id="paint0_linear_889_16" x1="37.5" y1="57.5" x2="18.5566" y2="10.7299" gradientUnits="userSpaceOnUse">
<stop stop-color="#BCBCBC"/>
<stop offset="1" stop-color="#96A0AE"/>
</linearGradient>
<linearGradient id="paint1_linear_889_16" x1="22.4" y1="12" x2="61.7996" y2="45.0957" gradientUnits="userSpaceOnUse">
<stop stop-color="#40DFFF"/>
<stop offset="1" stop-color="#4075FF"/>
</linearGradient>
</defs>
</svg>
